<svg id="icons" enable-background="new 0 0 64 64" height="512" viewBox="0 0 64 64" width="512" xmlns="http://www.w3.org/2000/svg"><path d="m1 58c0 .55.45 1 1 1h60c.55 0 1-.45 1-1v-49h-62z" fill="#e6e9ed"/><path d="m63 7v2h-62v-2c0-1.109.89-2 2-2h58c1.11 0 2 .891 2 2z" fill="#ccd1d9"/><path d="m4.006 5.998h-.01c-.553 0-.995.447-.995 1 0 .552.452 1 1.005 1s1-.448 1-1c0-.553-.447-1-1-1z" fill="#e6e9ed"/><path d="m7.005 5.998h-.01c-.552 0-.995.447-.995 1 0 .552.453 1 1.005 1 .553 0 1-.448 1-1 0-.553-.447-1-1-1z" fill="#e6e9ed"/><path d="m10.008 5.998h-.01c-.553 0-.995.447-.995 1 0 .552.452 1 1.005 1s1-.448 1-1c0-.553-.447-1-1-1z" fill="#e6e9ed"/><path d="m44 14.006c-.55 0-1 .449-1 1v40c0 .55.45 1 1 1h14c.55 0 1-.45 1-1v-40c0-.551-.45-1-1-1z" fill="#ccd1d9"/><path d="m25 35.995c-.55 0-1 .45-1 1v18.001c0 .55.45 1 1 1h15.002c.55 0 1-.45 1-1v-18.001c0-.55-.45-1-1-1z" fill="#ccd1d9"/><path d="m5.999 35.995c-.55 0-1 .45-1 1v18.001c0 .55.45 1 1 1h15.002c.55 0 1-.45 1-1v-18.001c0-.55-.45-1-1-1z" fill="#ccd1d9"/><path d="m25 14.002c-.55 0-1 .451-1 1v18.001c0 .55.45 1 1 1h15.002c.55 0 1-.45 1-1v-18.001c0-.549-.45-1-1-1z" fill="#ccd1d9"/><path d="m5.999 14.002c-.55 0-1 .451-1 1v18.001c0 .55.45 1 1 1h15.002c.55 0 1-.45 1-1v-18.001c0-.549-.45-1-1-1z" fill="#ccd1d9"/><path d="m44 13.005c-.55 0-1 .45-1 1v40c0 .55.45 1 1 1h14c.55 0 1-.45 1-1v-40c0-.55-.45-1-1-1z" fill="#fff"/><path d="m53.5 47.995c.83 0 1.5.67 1.5 1.5s-.67 1.5-1.5 1.5h-5c-.83 0-1.5-.67-1.5-1.5s.67-1.5 1.5-1.5z" fill="#4a89dc"/><path d="m25 34.994c-.55 0-1 .45-1 1v18.001c0 .55.45 1 1 1h15.002c.55 0 1-.45 1-1v-18.001c0-.55-.45-1-1-1z" fill="#fff"/><path d="m36.001 40.994v5h-7v-5h1.5 4z" fill="#ed5565"/><path d="m36.001 46.997h-7.001c-.553 0-1-.447-1-1v-4.999c0-.553.447-1 1-1h7.001c.553 0 1 .447 1 1v4.999c0 .553-.447 1-1 1zm-6.001-2h5.001v-2.999h-5.001z" fill="#ed5565"/><path d="m34.501 40.999c-.553 0-1-.447-1-1 0-.552-.448-1-1-1s-1 .448-1 1c0 .553-.447 1-1 1s-1-.447-1-1c0-1.654 1.346-3 3-3s3 1.346 3 3c0 .553-.447 1-1 1z" fill="#656d78"/><path d="m30.501 41.998c-.553 0-1-.447-1-1v-.999c0-.553.447-1 1-1s1 .447 1 1v.999c0 .553-.447 1-1 1z" fill="#656d78"/><path d="m34.501 41.998c-.553 0-1-.447-1-1v-.999c0-.553.447-1 1-1s1 .447 1 1v.999c0 .553-.447 1-1 1z" fill="#656d78"/><path d="m31.997 51.998h-2.999c-.553 0-1-.447-1-1s.447-1 1-1h2.999c.553 0 1 .447 1 1s-.447 1-1 1z" fill="#656d78"/><path d="m35.998 50.998h-1c-.553 0-1-.447-1-1s.447-1 1-1h1c.553 0 1 .447 1 1s-.447 1-1 1z" fill="#a0d468"/><path d="m35.999 52.998c-.367 0-.72-.202-.896-.553l-1-2c-.247-.494-.047-1.095.447-1.342.494-.245 1.095-.047 1.342.447l1 2c.247.494.047 1.095-.447 1.342-.143.072-.296.106-.446.106z" fill="#a0d468"/><path d="m35.998 52.998h-1c-.553 0-1-.447-1-1s.447-1 1-1h1c.553 0 1 .447 1 1s-.447 1-1 1z" fill="#a0d468"/><path d="m5.999 34.994c-.55 0-1 .45-1 1v18.001c0 .55.45 1 1 1h15.002c.55 0 1-.45 1-1v-18.001c0-.55-.45-1-1-1z" fill="#fff"/><path d="m17 40.994v5h-7v-5h1.5 4z" fill="#ed5565"/><path d="m17 46.997h-7.001c-.553 0-1-.447-1-1v-4.999c0-.553.447-1 1-1h7.001c.553 0 1 .447 1 1v4.999c0 .553-.447 1-1 1zm-6.001-2h5.001v-2.999h-5.001z" fill="#ed5565"/><path d="m15.5 40.999c-.553 0-1-.447-1-1 0-.552-.448-1-1-1s-1 .448-1 1c0 .553-.447 1-1 1s-1-.447-1-1c0-1.654 1.346-3 3-3s3 1.346 3 3c0 .553-.447 1-1 1z" fill="#656d78"/><path d="m11.5 41.998c-.553 0-1-.447-1-1v-.999c0-.553.447-1 1-1s1 .447 1 1v.999c0 .553-.447 1-1 1z" fill="#656d78"/><path d="m15.5 41.998c-.553 0-1-.447-1-1v-.999c0-.553.447-1 1-1s1 .447 1 1v.999c0 .553-.447 1-1 1z" fill="#656d78"/><path d="m12.996 51.998h-2.999c-.553 0-1-.447-1-1s.447-1 1-1h2.999c.553 0 1 .447 1 1s-.447 1-1 1z" fill="#656d78"/><path d="m16.997 50.998h-1c-.553 0-1-.447-1-1s.447-1 1-1h1c.553 0 1 .447 1 1s-.447 1-1 1z" fill="#a0d468"/><path d="m16.998 52.998c-.367 0-.72-.202-.896-.553l-1-2c-.247-.494-.047-1.095.447-1.342.494-.245 1.095-.047 1.342.447l1 2c.247.494.047 1.095-.447 1.342-.143.072-.296.106-.446.106z" fill="#a0d468"/><path d="m16.997 52.998h-1c-.553 0-1-.447-1-1s.447-1 1-1h1c.553 0 1 .447 1 1s-.447 1-1 1z" fill="#a0d468"/><path d="m25 13.002c-.55 0-1 .45-1 1v18c0 .551.45 1 1 1h15.002c.55 0 1-.449 1-1v-18c0-.55-.45-1-1-1z" fill="#fff"/><path d="m36.001 19.002v5h-7v-5h1.5 4z" fill="#ed5565"/><path d="m36.001 25.005h-7.001c-.553 0-1-.447-1-1v-4.999c0-.553.447-1 1-1h7.001c.553 0 1 .447 1 1v4.999c0 .553-.447 1-1 1zm-6.001-2h5.001v-2.999h-5.001z" fill="#ed5565"/><path d="m34.501 19.007c-.553 0-1-.447-1-1 0-.552-.448-1-1-1s-1 .448-1 1c0 .553-.447 1-1 1s-1-.447-1-1c0-1.654 1.346-3 3-3s3 1.346 3 3c0 .553-.447 1-1 1z" fill="#656d78"/><path d="m30.501 20.006c-.553 0-1-.447-1-1v-.999c0-.553.447-1 1-1s1 .447 1 1v.999c0 .553-.447 1-1 1z" fill="#656d78"/><path d="m34.501 20.006c-.553 0-1-.447-1-1v-.999c0-.553.447-1 1-1s1 .447 1 1v.999c0 .553-.447 1-1 1z" fill="#656d78"/><path d="m31.997 30.006h-2.999c-.553 0-1-.447-1-1s.447-1 1-1h2.999c.553 0 1 .447 1 1s-.447 1-1 1z" fill="#656d78"/><path d="m35.998 29.006h-1c-.553 0-1-.447-1-1s.447-1 1-1h1c.553 0 1 .447 1 1s-.447 1-1 1z" fill="#a0d468"/><path d="m35.999 31.006c-.367 0-.72-.202-.896-.553l-1-2c-.247-.494-.047-1.095.447-1.342.494-.245 1.095-.047 1.342.447l1 2c.247.494.047 1.095-.447 1.342-.143.072-.296.106-.446.106z" fill="#a0d468"/><path d="m35.998 31.006h-1c-.553 0-1-.447-1-1s.447-1 1-1h1c.553 0 1 .447 1 1s-.447 1-1 1z" fill="#a0d468"/><path d="m5.999 13.002c-.55 0-1 .45-1 1v18c0 .551.45 1 1 1h15.002c.55 0 1-.449 1-1v-18c0-.55-.45-1-1-1z" fill="#fff"/><path d="m17 19.002v5h-7v-5h1.5 4z" fill="#ed5565"/><path d="m17 25.005h-7.001c-.553 0-1-.447-1-1v-4.999c0-.553.447-1 1-1h7.001c.553 0 1 .447 1 1v4.999c0 .553-.447 1-1 1zm-6.001-2h5.001v-2.999h-5.001z" fill="#ed5565"/><path d="m15.5 19.007c-.553 0-1-.447-1-1 0-.552-.448-1-1-1s-1 .448-1 1c0 .553-.447 1-1 1s-1-.447-1-1c0-1.654 1.346-3 3-3s3 1.346 3 3c0 .553-.447 1-1 1z" fill="#656d78"/><path d="m11.5 20.006c-.553 0-1-.447-1-1v-.999c0-.553.447-1 1-1s1 .447 1 1v.999c0 .553-.447 1-1 1z" fill="#656d78"/><path d="m15.5 20.006c-.553 0-1-.447-1-1v-.999c0-.553.447-1 1-1s1 .447 1 1v.999c0 .553-.447 1-1 1z" fill="#656d78"/><path d="m12.996 30.006h-2.999c-.553 0-1-.447-1-1s.447-1 1-1h2.999c.553 0 1 .447 1 1s-.447 1-1 1z" fill="#656d78"/><path d="m16.997 29.006h-1c-.553 0-1-.447-1-1s.447-1 1-1h1c.553 0 1 .447 1 1s-.447 1-1 1z" fill="#a0d468"/><path d="m16.998 31.006c-.367 0-.72-.202-.896-.553l-1-2c-.247-.494-.047-1.095.447-1.342.494-.245 1.095-.047 1.342.447l1 2c.247.494.047 1.095-.447 1.342-.143.072-.296.106-.446.106z" fill="#a0d468"/><path d="m16.997 31.006h-1c-.553 0-1-.447-1-1s.447-1 1-1h1c.553 0 1 .447 1 1s-.447 1-1 1z" fill="#a0d468"/><g fill="#e6e9ed"><path d="m47.034 30.004c-.553 0-1.005-.447-1.005-1s.442-1 .994-1h.011c.552 0 1 .447 1 1s-.448 1-1 1z"/><path d="m54.998 30.004h-4.994c-.553 0-1-.447-1-1s.447-1 1-1h4.994c.553 0 1 .447 1 1s-.447 1-1 1z"/><path d="m47.034 27.003c-.553 0-1.005-.448-1.005-1s.442-1 .994-1h.011c.552 0 1 .448 1 1s-.448 1-1 1z"/><path d="m54.998 27.003h-4.994c-.553 0-1-.448-1-1s.447-1 1-1h4.994c.553 0 1 .448 1 1s-.447 1-1 1z"/><path d="m54.998 18h-7.998c-.553 0-1-.447-1-1s.447-1 1-1h7.998c.553 0 1 .447 1 1s-.447 1-1 1z"/><path d="m52.999 21.002h-4c-.553 0-1-.447-1-1s.447-1 1-1h4c.553 0 1 .447 1 1s-.447 1-1 1z"/><path d="m47.034 36.005c-.553 0-1.005-.447-1.005-1s.442-1 .994-1h.011c.552 0 1 .447 1 1s-.448 1-1 1z"/><path d="m54.998 36.005h-4.994c-.553 0-1-.447-1-1s.447-1 1-1h4.994c.553 0 1 .447 1 1s-.447 1-1 1z"/><path d="m47.034 33.002c-.553 0-1.005-.447-1.005-1s.442-1 .994-1h.011c.552 0 1 .447 1 1s-.448 1-1 1z"/><path d="m54.998 33.002h-4.994c-.553 0-1-.447-1-1s.447-1 1-1h4.994c.553 0 1 .447 1 1s-.447 1-1 1z"/><path d="m47.034 42.007c-.553 0-1.005-.447-1.005-1s.442-1 .994-1h.011c.552 0 1 .447 1 1s-.448 1-1 1z"/><path d="m54.998 42.007h-4.994c-.553 0-1-.447-1-1s.447-1 1-1h4.994c.553 0 1 .447 1 1s-.447 1-1 1z"/><path d="m47.034 39.005c-.553 0-1.005-.447-1.005-1s.442-1 .994-1h.011c.552 0 1 .447 1 1s-.448 1-1 1z"/><path d="m54.998 39.005h-4.994c-.553 0-1-.447-1-1s.447-1 1-1h4.994c.553 0 1 .447 1 1s-.447 1-1 1z"/></g><path d="m47 48.494h8v1.001h-8z" fill="#4a89dc"/><path d="m53.5 46.994c.83 0 1.5.67 1.5 1.5s-.67 1.5-1.5 1.5h-5c-.83 0-1.5-.67-1.5-1.5s.67-1.5 1.5-1.5z" fill="#5d9cec"/></svg>