<?xml version="1.0" encoding="iso-8859-1"?>
<!-- Generator: Adobe Illustrator 18.0.0, SVG Export Plug-In . SVG Version: 6.00 Build 0)  -->
<!DOCTYPE svg PUBLIC "-//W3C//DTD SVG 1.1//EN" "http://www.w3.org/Graphics/SVG/1.1/DTD/svg11.dtd">
<svg version="1.1" id="Capa_1" xmlns="http://www.w3.org/2000/svg" xmlns:xlink="http://www.w3.org/1999/xlink" x="0px" y="0px"
	 viewBox="0 0 330 330" style="enable-background:new 0 0 330 330;" xml:space="preserve">
<path d="M265,0H65c-8.284,0-15,6.716-15,15v300c0,5.766,3.305,11.022,8.502,13.52c5.197,2.498,11.365,1.796,15.868-1.807L165,254.21
	l90.63,72.503c2.712,2.17,6.027,3.287,9.372,3.287c2.208,0,4.43-0.487,6.496-1.48c5.197-2.497,8.502-7.753,8.502-13.52V15
	C280,6.716,273.284,0,265,0z M250,283.79l-75.63-60.503c-2.739-2.191-6.055-3.287-9.37-3.287s-6.631,1.096-9.37,3.287L80,283.79V30
	h170V283.79z"/>
<g>
</g>
<g>
</g>
<g>
</g>
<g>
</g>
<g>
</g>
<g>
</g>
<g>
</g>
<g>
</g>
<g>
</g>
<g>
</g>
<g>
</g>
<g>
</g>
<g>
</g>
<g>
</g>
<g>
</g>
</svg>
