<?xml version="1.0" encoding="iso-8859-1"?>
<!-- Generator: Adobe Illustrator 19.0.0, SVG Export Plug-In . SVG Version: 6.00 Build 0)  -->
<svg version="1.1" id="Layer_1" xmlns="http://www.w3.org/2000/svg" xmlns:xlink="http://www.w3.org/1999/xlink" x="0px" y="0px"
	 viewBox="0 0 512 512" style="enable-background:new 0 0 512 512;" xml:space="preserve">
<g>
	<g>
		<g>
			<path d="M486.727,402.549c3.687-5.333,5.853-11.793,5.853-18.753v-29.592c0-18.231-14.832-33.063-33.063-33.063h-11.413
				c-19.731,0-35.784,16.053-35.784,35.784v24.149c0,7.814,2.524,15.046,6.791,20.937c-6.152,3.34-11.519,7.941-15.774,13.444
				c-4.036-5.219-9.079-9.617-14.837-12.907c3.687-5.333,5.853-11.793,5.853-18.753v-29.592c0-18.231-14.832-33.063-33.063-33.063
				H349.88c-4.109,0-8.055,0.705-11.733,1.986v-40.666h26.089c5.762,0,10.435-4.672,10.435-10.435v-52.177
				c0-5.763-4.673-10.435-10.435-10.435h-14.61v-45.308c0-31.368-23.985-54.214-59.686-58.488c5.11-8.009,8.03-17.984,8.03-29.17
				V58.186c0-28.57-18.981-49.307-45.133-49.307h-6.783c-26.152,0-45.133,20.737-45.133,49.307v18.262
				c0,11.186,2.92,21.161,8.03,29.17c-35.7,4.273-59.686,27.12-59.686,58.488v45.308h-14.61c-5.763,0-10.435,4.672-10.435,10.435
				v52.177c0,5.764,4.673,10.435,10.435,10.435h26.089v38.68h-7.316c-19.731,0-35.784,16.053-35.784,35.784v24.149
				c0,7.814,2.524,15.046,6.791,20.937c-6.152,3.34-11.519,7.941-15.774,13.444c-4.036-5.219-9.079-9.617-14.837-12.907
				c3.687-5.333,5.853-11.793,5.853-18.753v-29.592c0-18.231-14.832-33.063-33.063-33.063H55.203
				c-19.731,0-35.784,16.053-35.784,35.784v24.149c0,7.814,2.524,15.046,6.791,20.937C10.613,410.48,0,427.007,0,445.969v46.717
				c0,5.763,4.673,10.435,10.435,10.435h98.226h98.226h98.226h98.226h98.226c5.762,0,10.435-4.672,10.435-10.435v-46.717
				C512,427.394,501.807,411.164,486.727,402.549z M40.289,356.926c0-8.223,6.69-14.913,14.913-14.913h11.413
				c6.721,0,12.192,5.469,12.192,12.192v29.592c0,6.721-5.469,12.191-12.192,12.191H55.203c-8.223,0-14.913-6.69-14.913-14.913
				V356.926z M98.227,482.251H20.871v-36.282c0-16.052,13.059-29.111,29.111-29.111h19.134c16.052,0,29.111,13.059,29.111,29.111
				V482.251z M349.88,342.013h11.413c6.721,0,12.192,5.469,12.192,12.192v29.592c0,6.721-5.469,12.191-12.192,12.191H349.88
				c-8.223,0-14.913-6.69-14.913-14.913v-24.149C334.967,348.703,341.657,342.013,349.88,342.013z M221.792,58.186
				c0-14.155,7.502-28.437,24.262-28.437h6.783c16.76,0,24.262,14.282,24.262,28.437v18.262c0,14.155-7.502,28.437-24.262,28.437
				h-6.783c-16.76,0-24.262-14.282-24.262-28.437V58.186z M263.757,125.756l-14.311,22.482l-14.311-22.482H263.757z
				 M170.137,164.106c0-22.839,19.107-34.793,40.699-37.658l29.807,46.827c1.915,3.01,5.235,4.832,8.803,4.832
				c3.568,0,6.888-1.822,8.803-4.832l29.807-46.827c21.592,2.865,40.699,14.818,40.699,37.658v45.308h-18.262v-26.785
				c0-5.763-4.673-10.435-10.435-10.435s-10.435,4.672-10.435,10.435v26.785H209.27v-26.785c0-5.763-4.673-10.435-10.435-10.435
				c-5.762,0-10.435,4.672-10.435,10.435v26.785h-18.262V164.106z M145.091,261.591v-31.306h208.709v31.306H145.091z
				 M138.515,356.926c0-8.223,6.69-14.913,14.913-14.913h11.413c6.721,0,12.192,5.469,12.192,12.192v29.592
				c0,6.721-5.469,12.191-12.192,12.191h-11.413c-8.223,0-14.913-6.69-14.913-14.913V356.926z M196.453,482.251h-77.355v-36.282
				h-0.001c0-16.052,13.059-29.111,29.111-29.111h19.134c16.052,0,29.111,13.059,29.111,29.111V482.251z M294.678,482.251h-77.355
				v-36.282h-0.001c0-16.052,13.059-29.111,29.111-29.111h19.134c16.052,0,29.111,13.059,29.111,29.111V482.251z M236.741,381.075
				v-24.149c0-8.223,6.69-14.913,14.913-14.913h11.413c6.721,0,12.192,5.469,12.192,12.192v29.592
				c0,6.721-5.469,12.191-12.192,12.191h-11.413C243.431,395.987,236.741,389.297,236.741,381.075z M305.113,415.455
				c-4.036-5.219-9.079-9.617-14.837-12.907c3.687-5.332,5.853-11.793,5.853-18.753v-29.592c0-18.231-14.832-33.063-33.063-33.063
				h-11.413c-19.731,0-35.784,16.053-35.784,35.784v24.149c0,7.814,2.524,15.046,6.791,20.937
				c-6.152,3.34-11.519,7.941-15.774,13.444c-4.036-5.219-9.079-9.617-14.837-12.907c3.687-5.333,5.853-11.793,5.853-18.753v-29.592
				c0-12.11-6.549-22.715-16.288-28.474v-43.269h135.662v0v59.745c-2.037,4.494-3.181,9.473-3.181,14.719v24.149
				c0,7.814,2.524,15.046,6.791,20.937C314.735,405.352,309.368,409.953,305.113,415.455z M392.904,482.251h-77.355v-36.282h-0.001
				c0-16.052,13.059-29.111,29.111-29.111h19.134c16.052,0,29.111,13.059,29.111,29.111V482.251z M433.192,356.926
				c0-8.223,6.69-14.913,14.913-14.913h11.413c6.721,0,12.192,5.469,12.192,12.192v29.592c0,6.721-5.469,12.191-12.192,12.191
				h-11.413c-8.223,0-14.913-6.69-14.913-14.913V356.926z M491.13,482.251h-0.001h-77.355v-36.282
				c0-16.052,13.059-29.111,29.111-29.111h19.134c16.052,0,29.111,13.059,29.111,29.111V482.251z"/>
			<circle cx="249.449" cy="193.766" r="10.435"/>
		</g>
	</g>
</g>
<g>
</g>
<g>
</g>
<g>
</g>
<g>
</g>
<g>
</g>
<g>
</g>
<g>
</g>
<g>
</g>
<g>
</g>
<g>
</g>
<g>
</g>
<g>
</g>
<g>
</g>
<g>
</g>
<g>
</g>
</svg>
