<?xml version="1.0" encoding="iso-8859-1"?>
<!-- Generator: Adobe Illustrator 19.0.0, SVG Export Plug-In . SVG Version: 6.00 Build 0)  -->
<svg version="1.1" id="Layer_1" xmlns="http://www.w3.org/2000/svg" xmlns:xlink="http://www.w3.org/1999/xlink" x="0px" y="0px"
	 viewBox="0 0 484.689 484.689" style="enable-background:new 0 0 484.689 484.689;" xml:space="preserve">
<g>
	<path d="M242.344,99.803c27.516,0,49.901-22.386,49.901-49.902S269.86,0,242.344,0s-49.901,22.386-49.901,49.902
		S214.829,99.803,242.344,99.803z M242.344,30c10.974,0,19.901,8.928,19.901,19.902s-8.928,19.902-19.901,19.902
		s-19.901-8.928-19.901-19.902S231.371,30,242.344,30z"/>
	<path d="M385.14,197.775h-59.349c-7.106-39.627-41.807-69.803-83.447-69.803s-76.342,30.176-83.447,69.803H99.549v30h24.569
		l20,256.914h196.453l20-256.914h24.569V197.775z M242.344,157.972c25.017,0,46.157,16.856,52.699,39.803H189.646
		C196.187,174.829,217.327,157.972,242.344,157.972z M312.815,454.689H171.874l-17.665-226.914H330.48L312.815,454.689z"/>
</g>
<g>
</g>
<g>
</g>
<g>
</g>
<g>
</g>
<g>
</g>
<g>
</g>
<g>
</g>
<g>
</g>
<g>
</g>
<g>
</g>
<g>
</g>
<g>
</g>
<g>
</g>
<g>
</g>
<g>
</g>
</svg>
