<?xml version="1.0" encoding="iso-8859-1"?>
<!-- Generator: Adobe Illustrator 18.0.0, SVG Export Plug-In . SVG Version: 6.00 Build 0)  -->
<!DOCTYPE svg PUBLIC "-//W3C//DTD SVG 1.1//EN" "http://www.w3.org/Graphics/SVG/1.1/DTD/svg11.dtd">
<svg version="1.1" id="Capa_1" xmlns="http://www.w3.org/2000/svg" xmlns:xlink="http://www.w3.org/1999/xlink" x="0px" y="0px"
	 viewBox="0 0 330 330" style="enable-background:new 0 0 330 330;" xml:space="preserve">
<path d="M275.606,104.389L250,78.786V45c0-8.284-6.716-15-15-15h-33.787l-25.61-25.607C172.789,1.58,168.974,0,164.995,0
	c-3.979,0-7.793,1.581-10.606,4.394L128.786,30H95c-8.284,0-15,6.716-15,15v33.786l-25.605,25.603
	C51.581,107.202,50,111.017,50,114.995s1.58,7.794,4.393,10.606L80,151.213V185c0,8.284,6.716,15,15,15h5v115
	c0,5.404,2.907,10.391,7.609,13.053c4.703,2.664,10.474,2.59,15.108-0.19L165,302.493l42.282,25.369
	c2.374,1.424,5.045,2.138,7.718,2.138c2.547,0,5.097-0.648,7.391-1.947C227.093,325.391,230,320.404,230,315V200h5
	c8.284,0,15-6.716,15-15v-33.787l25.607-25.611c2.813-2.813,4.393-6.628,4.393-10.606S278.419,107.202,275.606,104.389z
	 M172.718,272.138c-4.75-2.85-10.686-2.85-15.436,0L130,288.507v-87.294l24.395,24.391c2.929,2.929,6.767,4.393,10.605,4.393
	c3.839,0,7.677-1.464,10.605-4.393L200,201.213v87.294L172.718,272.138z M224.393,134.395C221.58,137.207,220,141.023,220,145v25
	h-25c-3.978,0-7.793,1.58-10.605,4.393L165,193.784l-19.395-19.392C142.793,171.58,138.978,170,135,170h-25v-25
	c0-3.977-1.58-7.793-4.393-10.605l-19.394-19.397l19.393-19.39C108.419,92.794,110,88.979,110,85V60h25
	c3.979,0,7.794-1.581,10.607-4.395l19.39-19.393l19.397,19.395C187.207,58.42,191.023,60,195,60h25v25
	c0,3.979,1.581,7.794,4.395,10.607l19.393,19.39L224.393,134.395z"/>
<g>
</g>
<g>
</g>
<g>
</g>
<g>
</g>
<g>
</g>
<g>
</g>
<g>
</g>
<g>
</g>
<g>
</g>
<g>
</g>
<g>
</g>
<g>
</g>
<g>
</g>
<g>
</g>
<g>
</g>
</svg>
